<svg height='300px' width='300px'  fill="#000000" xmlns="http://www.w3.org/2000/svg" xmlns:xlink="http://www.w3.org/1999/xlink" version="1.1" x="0px" y="0px" viewBox="0 0 100 100" style="enable-background:new 0 0 100 100;" xml:space="preserve"><path d="M74,26H60c0-4.41-3.59-8-8-8h-4c-4.41,0-8,3.59-8,8H26c-1.1,0-2,0.9-2,2s0.9,2,2,2h2v44c0,4.41,3.59,8,8,8h28  c4.41,0,8-3.59,8-8V30h2c1.1,0,2-0.9,2-2S75.1,26,74,26z M48,22h4c2.21,0,4,1.79,4,4H44C44,23.79,45.79,22,48,22z M68,74  c0,2.21-1.79,4-4,4H36c-2.21,0-4-1.79-4-4V30h36V74z"></path></svg>