<svg fill="none" height="39" viewBox="0 0 53 39" width="53" xmlns="http://www.w3.org/2000/svg"><g fill="#0d084d"><path d="M32.776 15.221c3.69 3.93 2.752 10.102-.46 12.944-3.265 2.89-8.497 2.83-11.717-.098-3.177-2.89-3.97-9-.38-12.807-.082-.136-.149-.302-.26-.429-1.5-1.715-2.109-3.713-2.1-6.01.01-3.098 1.309-5.47 3.735-7.177C26.297-1.67 33.63.404 35.004 7.127c.557 2.728.088 5.38-1.838 7.576-.134.15-.243.321-.39.518zm-2.59-6.266c.001-2.018-1.701-3.724-3.69-3.698-1.938.025-3.617 1.768-3.596 3.737.022 1.962 1.65 3.613 3.592 3.64 2.023.029 3.692-1.633 3.694-3.679zm-3.612 8.876c-1.994-.006-3.642 1.617-3.672 3.615-.029 1.978 1.637 3.706 3.589 3.721a3.672 3.672 0 003.695-3.676c.003-2.026-1.604-3.654-3.612-3.66z"/><path d="M15.1 15.203c4.01 4.409 2.327 10.638-.63 13.097-3.24 2.693-8.29 2.652-11.433-.107-3.027-2.659-4.42-8.751-.503-12.995-.162-.205-.327-.422-.498-.635C-1.832 9.793.22 1.618 7.176.258c4.662-.913 9.164 2.044 10.087 6.675.551 2.764.191 5.43-1.721 7.68-.162.188-.3.397-.443.59zM8.88 17.83a3.617 3.617 0 00-3.658 3.609c-.026 2.016 1.597 3.716 3.557 3.727a3.67 3.67 0 003.696-3.67c.005-2.041-1.582-3.66-3.595-3.666zm3.595-8.907c-.01-2.014-1.72-3.7-3.714-3.668-1.905.032-3.53 1.73-3.535 3.69-.004 2.02 1.63 3.698 3.592 3.687a3.666 3.666 0 003.657-3.709zm25.473 6.21c-2.21-2.18-2.677-4.953-2.267-7.925.294-2.129 1.475-3.784 3.059-5.164 2.948-2.568 8.098-2.53 11.188.165 3.29 2.872 4.332 9.052.55 13.049.208.267.432.536.641.818 2.037 2.749 2.338 5.789 1.095 8.887-1.236 3.078-3.616 4.904-6.89 5.326-4.502.581-8.69-2.332-9.57-6.753-.55-2.764-.18-5.431 1.717-7.686.13-.156.253-.32.377-.481.015-.02.021-.046.1-.236zm9.953-6.163c.008-1.98-1.641-3.673-3.614-3.713-1.946-.039-3.709 1.74-3.689 3.724.02 1.993 1.704 3.673 3.662 3.655A3.692 3.692 0 0047.9 8.97zm-3.645 8.87c-1.98-.008-3.647 1.646-3.656 3.632-.01 1.973 1.665 3.688 3.613 3.698 2.015.009 3.694-1.673 3.688-3.692a3.651 3.651 0 00-3.644-3.638zm7.832 20.76H50.7c-.035-.395-.084-.718-.09-1.041-.016-.822.015-1.645-.025-2.465-.043-.859-.358-1.227-.953-1.235-.622-.008-1.092.412-1.158 1.18-.07.816-.032 1.643-.047 2.464-.006.327-.028.655-.046 1.078H46.82c-.033-.31-.085-.582-.09-.854-.014-.925.004-1.85-.025-2.773-.021-.69-.323-1.046-.837-1.09-.555-.048-1.033.27-1.145.894-.099.549-.077 1.122-.087 1.685-.012.684-.003 1.37-.003 2.144h-1.632v-6.112l1.277-.059.4.668c1.241-1.124 2.46-1.186 3.753.334.123-.228.183-.445.321-.584 1.124-1.125 2.958-.63 3.376.899.163.604.159 4.079-.04 4.866zm-13.734.234c-1.917-.007-3.264-1.352-3.262-3.26.001-1.962 1.35-3.315 3.3-3.31 1.956.004 3.241 1.34 3.23 3.35-.014 1.95-1.309 3.226-3.268 3.22zm1.585-3.244c.017-1.013-.588-1.708-1.505-1.733-.97-.026-1.639.653-1.652 1.676-.014 1.002.675 1.762 1.599 1.76.905-.002 1.541-.698 1.558-1.703zm-5.526-2.517c-.217.24-.397.45-.59.647-.139.144-.295.27-.455.417-.84-.356-1.64-.5-2.246.376-.413.6-.377 1.598.056 2.178.459.615 1.03.693 2.265.273.284.333.586.692.877 1.036-.808 1.099-2.874 1.122-4.091.12-1.309-1.075-1.487-3.388-.367-4.73 1.12-1.342 3.271-1.533 4.55-.317zm-6.639 4.555c.014.584-.452 1.115-1.01 1.149-.586.035-1.103-.494-1.102-1.123s.43-1.077 1.037-1.083c.597-.006 1.062.451 1.075 1.057z"/></g></svg>