<svg fill="none" height="55" viewBox="0 0 50 55" width="50" xmlns="http://www.w3.org/2000/svg"><clipPath id="a"><path d="M0 0h50v55H0z"/></clipPath><g clip-path="url(#a)" fill="#0d084d"><path d="M6.537 0L7.7.221c.202.039.418.048.598.132.16.074.367.22.389.36.022.135-.134.341-.267.45-.23.189-.51.315-.754.488-.214.151-.407.33-.61.496l.015.19c.474.091.949.185 1.425.272.077.015.167-.017.24.006.216.071.428.16.642.24-.093.208-.142.454-.288.615-.433.48-.904.925-1.359 1.384l.065.13c.146-.032.302-.042.436-.099.391-.168.767-.376 1.165-.528.521-.2.588-.155.567.39-.014.327-.099.65-.14.976-.023.193-.023.39-.034.585l.139.067c.143-.17.292-.333.428-.507.194-.248.35-.532.573-.748.22-.214.443-.184.48.18.04.392.062.785.101 1.177.02.197.063.391.096.587l.147.033c.096-.226.21-.446.284-.68.101-.312.147-.643.262-.95.14-.363.342-.375.563-.055.134.195.235.412.374.604.063.088.181.138.275.206.056-.103.155-.205.162-.312.023-.318.01-.637.01-.956.001-.317.15-.427.414-.236.421.305.823.638 1.228.965.154.124.294.266.44.4l.147-.084c-.092-.26-.19-.519-.272-.782-.176-.565-.375-1.126-.503-1.7-.08-.363.174-.483.5-.383.573.173 1.136.376 1.709.544.126.037.28-.022.422-.036-.024-.16.008-.366-.08-.47a37.067 37.067 0 00-1.362-1.467c-.498-.517-.463-.77.208-1.03 1.012-.39 2.066-.59 3.157-.542.123.006.24.098.36.15-.074.113-.12.28-.224.329-.398.188-.815.338-1.223.505-.174.072-.361.13-.516.234-.24.16-.349.38-.123.638.292.334.597.657.89.99.431.485.884.956 1.269 1.476.12.162.116.487.039.688-.038.097-.394.147-.576.101-.884-.22-1.757-.485-2.638-.723-.382-.104-.506.028-.363.41.252.677.538 1.34.798 2.012.085.219.16.446.194.676.025.17.018.484-.043.502-.192.056-.472.08-.62-.023-.62-.434-1.207-.916-1.803-1.386-.468-.37-.803-.337-.839.309-.016.299-.225.586-.347.879-.246-.173-.495-.34-.736-.519-.125-.094-.232-.212-.462-.425-.2.695-.365 1.303-.551 1.905-.106.342-.203.7-.386 1.003-.215.356-.471.332-.606-.063-.15-.44-.203-.913-.29-1.373-.04-.215-.044-.438-.102-.648-.042-.153-.145-.289-.22-.432-.143.086-.296.16-.428.26-.227.173-.422.391-.663.538-.423.257-.792.058-.79-.444.003-.403.117-.806.142-1.211.013-.207-.005-.462-.12-.612-.057-.075-.385-.009-.55.073-.71.348-1.39.763-2.113 1.075-.314.136-.71.083-1.069.116.114-.31.16-.672.354-.919.507-.647 1.086-1.24 1.622-1.864.22-.257.406-.543.678-.91-.4-.055-.671-.106-.946-.126-.602-.04-1.207-.06-1.808-.104-.11-.008-.214-.092-.32-.141.054-.106.083-.248.17-.314.49-.373.993-.726 1.49-1.09.149-.11.288-.232.527-.425-.496-.158-.89-.286-1.285-.41-.044-.014-.103.006-.142-.015-.226-.121-.448-.25-.672-.376.236-.11.473-.216.706-.33.048-.023.081-.077.12-.116C5.834 0 6.186 0 6.538 0zm23.367 0c.419.667.52.696 1.209.445 1.521-.554 2.966-.43 4.246.606.525.425.818 1.044.949 1.706.232 1.186.02 2.283-.758 3.239-.557.682-1.305 1.007-2.16 1.152-.939.158-1.777-.082-2.563-.567-.3-.185-.535-.222-.71.165-.056.122-.216.199-.327.297-.08-.14-.176-.273-.23-.422-.037-.1.008-.228-.025-.33-.09-.28-.237-.41-.51-.158-.22.204-.447.406-.69.581-.122.09-.288.119-.435.175.024-.157.014-.33.078-.468.157-.343.35-.669.523-1.003.042-.08.063-.17.123-.337l-1.182-.232c.242-.237.415-.415.597-.582.116-.107.25-.193.367-.297.25-.226.263-.425-.075-.58a2.05 2.05 0 01-.294-.158c-.138-.092-.27-.195-.404-.294.141-.135.26-.307.426-.4.521-.291.533-.317.22-.81-.253-.397-.485-.807-.727-1.211l.15-.15 1.757.816L29.612 0zm2.436 4.63l.243 1.12-.106.113c-.363-.157-.723-.327-1.094-.463-.108-.04-.251.018-.378.03.04.124.043.297.129.363 1.002.78 2.47.72 3.321-.356.69-.872.676-1.862.418-2.91-.4-1.614-2.238-1.975-3.384-1.327-.14.079-.2.297-.296.45.163.036.33.116.487.098.379-.047.752-.14 1.217-.232l-.368.94 1.657.202.041.183-1.244.626c.23.512.943.666.924 1.39L32.34 4.63zm-1.245-.747c.15-.045.279-.087.41-.12.115-.03.232-.048.478-.097l-.923-.446.324-.474-1.123-.648c-.332.78-.332.78-1.095.678l.625.666-.62.671.748.051.243.838c.256-.664.693-.643 1.225-.436-.114-.267-.188-.437-.292-.683zM50 49.93c-.272.419-.576.802-1.157.632-.206-.06-.447-.174-.562-.339-.351-.504-.63-.54-1.062-.065-.551.608-.967 1.35-1.37 2.074-.394.71-.679 1.483-1.059 2.203-.101.192-.393.427-.562.402-.207-.03-.464-.279-.548-.492-.204-.521-.322-1.076-.475-1.618l-.135-.481c-.423.545-.784 1.128-1.259 1.597-.8.79-1.757 1.17-2.934.95-.871-.162-1.477-.711-1.604-1.63-.177-1.278.074-2.495 1.096-3.428 1.064-.972 2.592-.62 2.989.684a1.766 1.766 0 01-.843 2.07c-.332.18-.691.31-1.035.47-.192.09-.379.197-.574.3.538.755 1.607.574 2.286-.02.903-.79 1.38-1.821 1.722-2.937.078-.251.184-.506.337-.715.083-.113.33-.219.439-.174.139.058.274.26.303.42.122.662.188 1.335.31 1.997.046.255.188.494.287.739l.186-.005c.179-.405.362-.81.538-1.217.409-.952.86-1.886 1.79-2.445.712-.428 1.493-.566 2.242-.092.266.17.437.487.652.738l.001.383zm-11.51 2.483c.645.019 1.277-.365 1.476-.83.179-.417.02-1.046-.299-1.18-.415-.174-.91.114-1.041.676-.097.42-.093.863-.136 1.334zM0 49.165c.106-.474.202-.952.32-1.423.126-.5.252-1.005.423-1.491.184-.526.633-.775 1.153-.855.266-.041.516.088.475.432-.098.842-.239 1.68-.307 2.524a24.717 24.717 0 00-.072 2.39c.008.516.081 1.033.173 1.541.201 1.123 1.026 1.708 1.875 1.784.854.077 1.812-.658 2.137-1.654.516-1.584.714-3.16.042-4.783-.282-.68-.33-1.466.304-2.08.474-.459.95-.398 1.185.213.178.461.297.966.326 1.459.051.873.065 1.755.004 2.627-.108 1.548-.468 3.018-1.65 4.152-.478.46-1.033.775-1.7.88-.06.009-.111.077-.167.118H3.175c-.04-.04-.075-.107-.119-.114-1.433-.212-2.3-1.06-2.726-2.399-.127-.4-.22-.811-.328-1.218C0 50.568 0 49.867 0 49.165zm31.631 3.1c-.294.32-.61.623-.876.964-.807 1.04-1.873 1.572-3.177 1.642-.535.028-.896-.149-1.362-.556-.663.165-1.26.339-1.87.457-.624.12-1.103-.207-1.53-.61-.54-.508-.536-.514-1.127-.09-.586.419-1.234.7-1.95.795-.878.116-1.422-.411-1.793-1.088-.605-1.105-.728-.818-1.227-.016-.133.214-.287.414-.437.617-.512.694-1.148.647-1.562-.13-.355-.666-.655-1.364-1.038-2.013-.384-.65-.68-.696-1.248-.221-.827.691-1.614 1.43-2.442 2.12-.307.255-.66.483-1.03.627-.309.121-.541-.062-.465-.43.124-.596.27-1.189.421-1.78.17-.668.352-1.333.537-1.996.05-.18.087-.392.207-.518.151-.158.38-.243.576-.36.084.151.194.294.25.455.119.355.184.73.32 1.078.142.365.324.368.574.066.544-.659 1.077-1.327 1.651-1.959.417-.458.776-.405 1.017.162.286.677.465 1.398.744 2.079.176.43.421.835.681 1.223.244.363.627.326.838.02.277-.399.477-.867.63-1.332.135-.412.138-.866.245-1.29.047-.19.166-.396.317-.518.196-.159.513-.386.67-.322.231.094.483.404.518.651.071.5.07 1.033-.024 1.53-.17.897.12 1.826 1.213 2.033.586.11 1.661-.419 1.848-.976.03-.09-.011-.211-.04-.313-.316-1.11-.562-2.232-.502-3.395.06-1.186.235-2.343.81-3.413.444-.824.984-1.234 1.588-1.134.605.1 1.167.774 1.284 1.6.264 1.855.036 3.642-.814 5.332-.142.282-.257.583-.433.841-.272.4-.119.709.146 1.008.59.665 1.298.824 1.982.444-.168-1.285-.033-2.519.82-3.567a3.41 3.41 0 01.92-.794c.596-.341 1.27-.105 1.62.493.702 1.203.427 2.382-.744 3.181-.22.15-.444.295-.67.443.512.531 1.348.474 1.983-.082.944-.828 1.38-1.939 1.8-3.064.094-.25.17-.518.32-.731.104-.149.325-.307.484-.297.134.01.316.232.369.395.34 1.041.638 2.096.98 3.137.084.26.245.513.428.719.286.325.56.273.786-.114.372-.644.492-1.3.336-2.063-.133-.647-.193-1.347.213-1.983.246-.385.56-.588.99-.486.404.096.427.463.412.808-.077 1.771-.593 3.37-1.866 4.67-.458.468-1.014.662-1.647.557-.495-.083-.782-.445-.945-.903-.182-.513-.36-1.028-.54-1.541a70.313 70.313 0 01-.169-.062zm-8.785-1.1c.177-.088.232-.097.256-.13.066-.087.13-.179.18-.276.452-.897.607-1.87.68-2.853a4.423 4.423 0 00-.11-1.308c-.047-.199-.304-.349-.465-.52-.147.138-.298.274-.44.417a.308.308 0 00-.082.167c-.102.98-.24 1.96-.275 2.943-.018.496.157.998.256 1.56zm5.35.198c0-.095.017-.195-.002-.286-.131-.614-.585-.79-1.023-.401-.418.37-.47 1.578-.063 1.962.066.062.266.054.364.002.508-.268.701-.73.724-1.277zm-9.028-12.52c.597.273 1.195.4 1.89.345 1.199-.094 2.187-.536 3.04-1.356.25-.24.523-.15.668.14.746 1.499 2.03 1.876 3.577 1.736.117-.01.344.061.346.102.006.142-.021.337-.117.42-.147.129-.355.205-.548.26-.625.178-1.272.33-1.901.112-.333-.116-.606-.404-.917-.622-.662.213-1.39.555-2.152.668-1.643.245-3.227.014-4.622-.98-.686-.49-1.374-.88-2.282-.886-.906-.007-1.645-.493-2.21-1.223 2.32-.2 2.995-.736 2.755-2.226.796.346 1.255.952 1.534 1.708.217.588.397.737 1.06.773.538.028 1.198-.268 1.293-.697.094-.432.392-.475.698-.534 1.388-.27 2.344-1.016 2.746-2.423.573.02.921.432 1.34.723.18.125.413.225.628.24.697.047 1.396.048 2.095.067l.02.138c.043-.06.074-.138.132-.176.117-.08.256-.2.373-.188.122.012.256.143.338.257.166.23.28.498.453.72.25.322.164.601-.223.766a.836.836 0 00-.39.371c-.144.294-.237.613-.336.926-.351 1.103-1.275 1.083-2.067.659-.557-.298-.934-.791-1.21-1.364-.347-.725-.645-.78-1.194-.217-1.1 1.128-2.418 1.7-4.007 1.632-.266-.012-.533-.002-.8-.002a2.709 2.709 0 00-.01.131zm8.362-2.142c.004-.29-.273-.601-.576-.563-.34.043-.54.264-.533.605.008.338.22.586.556.572.307-.013.567-.193.553-.613zm9.879-19.399c.941-.132 1.816.281 2.162 1.056.517 1.158.982 2.34 1.49 3.562l.902-1.663c-.783-.57-1.97-.82-1.693-2.128.161-.761 1.04-1.439 1.76-1.426-.09.607-.14 1.211-.274 1.796-.115.504.03.852.447 1.154.714-.465 1.019-1.167.974-1.937-.053-.902-.607-1.578-1.486-1.814-.36-.097-.821.111-1.217.237-1.319.42-2.626.565-3.909-.1-.79-.411-1.321-1.074-1.654-1.879-.305-.739-.565-1.5-.42-2.352.283.097.539.242.803.262.53.039 1.082.095 1.594-.009 1.536-.313 2.715.275 3.573 1.448.625.854 1.33 1.566 2.202 2.153 1.079.728 1.38 2.292.812 3.34-.337.618-.78 1.18-1.177 1.767-.293.435-.612.858-.687 1.39l.121.107c.354-.345.702-.695 1.063-1.032.35-.33.729-.339.934.005.106.176.169.42.145.622-.1.827-.419 1.558-1.09 2.177-.057-.264-.084-.488-.153-.697-.184-.554-.627-.694-1.052-.303-.251.23-.433.539-.634.82-.087.122-.142.265-.227.429-.346-.818-.619-1.602-.999-2.332-.535-1.03-1.323-1.797-2.54-1.997a3.04 3.04 0 01-.502-.13c-.987-.346-1.214-.86-.935-2.007.094-.387.127-.79.189-1.19.501.162.889.548 1.045 1.107.26.933.837 1.576 1.612 2.136.806.582 1.373 1.396 1.77 2.314a.657.657 0 00.183.26c.135-.753-.219-1.375-.618-1.932-.615-.858-1.32-1.652-1.98-2.478-.182-.23-.344-.473-.534-.736zm1.147-1.673l.186.114c.421-.72 1.121-.74 1.863-.776-.64-.333-.888-.905-1.014-1.565l-.138.072c-.072.247-.143.495-.219.752-.858-.019-.766-.996-1.393-1.363v.931c-.792.27-.788-.758-1.403-.794.074.305.28.707.175.817-.183.193-.556.205-.85.292l-.031.13c.146.033.295.101.437.09.296-.024.587-.116.883-.128a.54.54 0 01.39.19c.04.05-.077.245-.152.354-.092.135-.214.251-.323.375l.074.125c.68-.068 1.159-.834 2.028-.619-.183.355-.348.679-.512 1.003zM5.514 18.483c.443.15.327.447.279.716-.096.532-.116 1.053.137 1.543l.171.042c.092-.27.2-.537.271-.813.175-.666.313-1.342.511-2 .044-.142.284-.226.434-.337.083.167.25.342.234.499-.073.669-.207 1.331-.302 1.998-.029.2-.005.408-.005.612l.17.04c.104-.217.222-.428.307-.65.312-.805.595-1.62.931-2.415.068-.16.313-.244.477-.363.056.166.184.346.154.495-.11.55-.265 1.093-.419 1.633-.124.436-.278.865-.403 1.301-.032.11-.005.236-.005.432.59-.311.764-.832.982-1.301.198-.425.31-.89.512-1.313.078-.165.295-.265.449-.395.08.176.263.376.226.523-.222.892-.42 1.802-.765 2.65-.491 1.21-1.126 2.359-1.655 3.553-.454 1.025-.365 1.479.313 2.334-.637.115-1.112-.073-1.671-.662-.74 1.01-.132 2.078.698 2.787.321.274.64.58.864.931.378.595.242 1.207-.127 1.784-1.212-.704-2.262-1.538-2.522-3.03-.236-1.357.067-2.6.802-3.75.365-.57.76-1.12 1.122-1.692.368-.582.319-.858-.165-1.344-.145-.145-.248-.332-.398-.468-.279-.253-.559-.192-.65.17-.062.246-.112.613.019.77.501.6.148 1.087-.125 1.588-.09.162-.256.283-.397.413-.308.285-.559.251-.749-.138-.15-.309-.3-.637-.345-.972-.215-1.591-.242-3.177.348-4.71.065-.167.195-.31.292-.46zm22.038 9.309c.5.728.426.907-.339 1.17-.383.131-.796.25-1.114.484-.94.69-.828 1.86-.1 2.713.904 1.055 2.105 1.343 3.438 1.04.291-.066.665-.175.684-.643-.15-.038-.295-.073-.477-.117l.098-.828c-1.092.39-2.125.85-3.164.086-.297-.218-.512-.487-.35-.922l.474-.073c.02-.04.039-.065.045-.094.052-.204.102-.41.152-.615.217.094.453.16.649.288.892.58 1.85.85 2.913.663.686-.12 1.368-.254 2.161-.401-.186.565-.286 1.214-.595 1.74-.95 1.62-2.414 2.196-4.273 1.945-1.949-.263-3.312-1.793-3.611-3.655-.382-2.372 1.436-4.798 3.812-5.027.606-.058 1.16-.082 1.696.21.093.051.208.184.2.268-.01.088-.141.193-.243.236-.22.092-.454.147-.773.247.172.112.256.151.32.212.177.167.493.35.487.517-.012.378-.372.392-.69.381-.255-.01-.514-.024-.767.005-.204.022-.404.106-.633.17z"/><path d="M36.068 6.623c.362-.37.802-.642.96-1.029.158-.385.035-.884.035-1.382.492.318.862.616 1.28.813.622.292 1.214-.11 1.094-.727-.04-.201-.207-.451-.386-.54-.616-.303-1.263-.546-1.899-.811-.094-.04-.19-.075-.284-.112l-.02-.165 2.095-.52c-.65-.887-1.663-1.123-2.663-1.381l.005-.178c.537-.122 1.067-.311 1.609-.35.612-.044 1.24.011 1.851.092.5.066.977.517.693 1.226a5.94 5.94 0 00-.26.801c-.077.31.22.772.527.794.37.026.546-.23.568-.558.029-.416.018-.836.006-1.254-.038-1.28.699-1.294 1.535-1.186.279.037.549.135.848.212-.482.477-.488 1.027-.295 1.66.328 1.072.455 2.156-.21 3.175-.572.874-1.467 1.24-2.422 1.443-1.532.328-3.078.272-4.667-.023zm6.04-3.649c-.124 1.282-.949 1.986-2.125 2.417.772.268 2.1-.333 2.415-.809.377-.57.34-1.482-.29-1.608zm.276-2.41c-.17.18-.378.311-.364.409a.542.542 0 00.323.366c.085.026.342-.177.342-.277 0-.145-.164-.288-.301-.498zM14.605 16.747c-1.151-.125-2.319.485-3.092 1.627-.074-.594-.08-1.115.203-1.62a1.55 1.55 0 011.31-.82c.542-.033 1.092.08 1.637.128-.387-.867-1.535-1.276-2.325-.77 0-.213.014-.397-.003-.578-.036-.409.052-.774.435-.977a1.006 1.006 0 011.15.142c.528.46.984 1.002 1.45 1.488.039-.365.058-.84.153-1.3.046-.216.204-.518.375-.57.206-.06.545.034.71.186.312.288.54.667.883 1.113-.878-.076-1.07.474-1.288 1.025.234-.134.46-.281.702-.397.704-.336 1.42-.639 2.227-.38.935.301 1.185 1.317.516 2.073-.402-1.096-1.929-1.052-3.106-.646.84.296 1.818.43 1.686 1.583-.104.914-.889 1.22-1.622 1.633.179-1.071.058-1.997-.903-2.673-.186.34-.378.674-.552 1.016-.054.107-.121.29-.072.35.306.377.064.776.085 1.16.016.314-.12.672.246.897.037.023.038.117.04.178.022.88.537 1.531 1.023 2.195.237.324.111.56-.18.754-.265.176-.493.18-.685-.125a2.667 2.667 0 00-.401-.464c-.273-.269-.55-.508-.484-.968.023-.162-.149-.364-.258-.53a1.55 1.55 0 01-.254-1.152c.057-.403-.167-.844-.264-1.267-.025-.105-.08-.226-.05-.315.222-.656.461-1.307.708-1.996zm-.411 16.288c-.373-.062-.715-.048-.978-.185-.238-.125-.417-.398-.562-.64-.042-.07.098-.348.2-.378.223-.066.488-.09.712-.034.872.219 1.438 1.462.957 2.213-.195.304-.61.604-.962.652a2.466 2.466 0 01-2.775-2.11c-.102-.74.064-1.35.642-1.794.702-.54 1.498-.517 2.299-.217 1.898.713 2.62 3.236 1.99 4.858-.312.808-.993 1.27-1.809 1.372-2.193.274-4.085-.695-4.868-2.905-.42-1.185.118-2.389.89-2.844.076-.045.168-.065.176-.067.082.758.045 1.545.268 2.251.5 1.592 1.95 2.223 3.5 2.001.678-.097 1.202-.698 1.242-1.418.05-.911-.433-2.198-1.665-2.512-.738-.19-1.362.073-1.568.683-.142.42.153 1.097.614 1.411.438.298 1.14.32 1.476.026.092-.083.137-.223.22-.363zM40.56 31.26c-.013.963-.47 1.774-1.05 2.475-.57.687-1.27 1.27-1.949 1.86-.13.112-.492.126-.626.025a1.157 1.157 0 01-.422-.687c-.02-.13.262-.364.454-.455 1.033-.486 1.808-1.196 2.135-2.314.035-.116-.057-.27-.09-.408-.116.064-.268.102-.342.198-.368.471-.717.958-1.072 1.438-.939 1.265-2.115.841-2.907-.045-.226-.252-.132-.508.095-.701.42-.36.862-.693 1.282-1.052.278-.237.564-.474.785-.76.105-.134.068-.379.094-.573-.174.057-.383.073-.517.18-.777.621-1.522 1.283-2.314 1.884-.173.13-.601.185-.725.071-.206-.19-.338-.54-.347-.827-.005-.146.308-.343.512-.447.54-.277 1.133-.464 1.64-.787.362-.23.666-.59.917-.948.885-1.261 3.13-1.083 3.932.184.307.486.428 1.087.634 1.635l-.12.054zm-2.034-2.02c-.35-.003-.575.311-.514.657.094.52.484.717.914.82.444.105.873-.232.79-.555-.117-.46-.709-.916-1.19-.921z"/><path d="M12.972 9.773c.15-.924 1.088-1.716 2.446-1.62.87.061 1.358.756 1.622 2.441.562-.485.96-1.233 1.837-1.18.315.02.66.099.924.26.662.405.884 1.965.234 2.715-.077-.328-.125-.585-.202-.832-.041-.135-.133-.252-.202-.378-.088.113-.223.215-.254.342-.073.298-.14.61-.128.915.017.405.192.694.72.4-.094.633-.384 1.095-.9 1.247-.553.162-1.159.103-1.568-.415a5.013 5.013 0 01-.547-.87c-.145-.291-.233-.612-.35-.933-.377.286-.725.619-1.132.844-.863.478-1.764.687-2.713.192-.895-.468-.94-1.576-.693-2.189.042-.105.19-.168.289-.25.071.105.146.208.211.318a.503.503 0 01.064.177c.047.326.147.728.497.692.246-.026.523-.36.664-.62.14-.26.166-.601.174-.908.018-.6-.208-.726-.767-.469-.057.026-.11.058-.226.12zm1.455 2.474c.582-.411 1.216-2.54 1.007-3.324-.565.397-1.282 2.691-1.007 3.324zm3.81.923a4.49 4.49 0 00.724-2.674c-.687.308-1.143 1.965-.725 2.674zm-1.67-2.372l-.095-.059c0-.08.02-.166-.004-.236-.061-.164-.145-.319-.22-.477-.147.119-.345.209-.43.362a2.22 2.22 0 00-.24.749c-.026.186.043.386.07.58.169-.08.38-.123.499-.25.174-.192.283-.443.42-.669zm1.204.162c-.778.451-.843.841-.248 1.269l.249-1.27zM30.24 21.626c.4.025.516-.133.496-.42-.008-.11-.028-.22-.03-.33-.023-.96.449-1.228 1.33-.778.36.184.748.315 1.159.485-.097.488-.593.523-.959.72-.356.191-.736.355-1.048.603-.117.092-.16.433-.082.58.174.328.52.494.888.38.12-.038.223-.306.237-.476.028-.342.165-.46.445-.255.534.39 1.06.794 1.557 1.232.22.192.22.42-.121.579-.537.25-1.567.456-2.167.362.033-.119.054-.235.095-.344.177-.462.118-.548-.394-.556-.097-.002-.192-.004-.288 0-.431.019-.53.2-.303.576.129.216.26.435.422.626.249.29.093.51-.117.687-.276.235-.895.14-1.277-.183-.31-.262-.314-.598-.161-.947.112-.258.23-.513.36-.798-.548-.129-.692.255-.871.484-.52.663-1.193.987-2.129 1.072.528-.484.694-1.025.63-1.644-.027-.26-.086-.535-.032-.782.107-.49.522-.625.93-.324.18.131.313.322.489.457.1.078.299.174.36.13.124-.087.282-.288.253-.398-.063-.239-.184-.51-.37-.66-.426-.346-.93-.594-1.353-.944-.433-.36-.58-.844-.384-1.408.144-.411.26-.833.45-1.282.252.686.892.803 1.411 1.088.511.281.7.85.582 1.526-.052.302-.008.625-.008.942zm-9.427 6.114c-1.624.268-2.978-.289-3.642-1.517-.464-.858-.506-1.917.466-2.985.418.203.815.413 1.23.58.063.025.207-.154.412-.315-.462-.316-.861-.578-1.25-.857-.27-.193-.542-.387-.778-.617-.445-.433-.448-.99.019-1.414a9.966 9.966 0 011.24-.947c.678-.444.894-1.01.547-1.768 1.085.155 1.74 1.616 1.154 2.536-.176.278-.407.523-.593.795-.356.52-.287.89.21 1.254.82.598.916 1.12.385 1.975-.248.4-.531.793-.693 1.228-.34.909.157 1.7 1.293 2.052z"/><path d="M20.817 24.94c.163.802.638 1.225 1.346 1.491 1.613.607 1.662 2.327.917 3.576-.551.927-1.428 1.345-2.523 1.451-1.216.118-2.216-.222-3.014-1.108-.573-.637-.95-1.385-.868-2.276.021-.23.163-.451.249-.676.215.104.492.156.634.321.761.896 2.677 1.116 3.69.592.564-.292.587-.656.055-1.014-.183-.123-.386-.22-.558-.356-.604-.476-.59-1.225.072-2.001zm1.677 3.548c-.283.17-.517.328-.767.458-.64.333-.821.747-.622 1.483.602.115.913-.33 1.185-.707.237-.329.533-.73.204-1.234zM11.241 24.99c.251.06.502.206.65.136.14-.068.254-.364.24-.549a12.05 12.05 0 00-.247-1.57c-.16-.733-.354-1.457-.554-2.268-.073.349-.178.661-.199.979-.055.87-.022 1.747-.124 2.61-.075.638-.61.97-1.198.892-.598-.078-.85-.62-.574-1.237.733.505 1.064.355 1.182-.558.104-.809.148-1.628.285-2.431.204-1.193 1.01-2.012 1.877-2.773.138-.121.3-.215.494-.352-.112.515-.268.972-.301 1.437-.086 1.189.447 2.194 1.064 3.158.593.93 1.239 1.828 1.786 2.782.463.806.239 1.704-.415 2.093-.802.478-1.819.008-1.886-.909-.019-.258.168-.53.26-.796l.148.026c.03.076.058.153.091.228.114.264.258.441.605.366.371-.08.417-.353.323-.596-.227-.58-.46-1.174-.797-1.695-.826-1.28-1.527-2.602-1.725-4.192-.307.514-.32 1.295-.074 2.08.29.928.618 1.846.84 2.79.078.325-.042.748-.199 1.063-.207.415-.745.54-1.134.37-.458-.196-.565-.505-.418-1.085zm28.684-.12c-.837-.133-1.265.142-1.142 1.102l-.154-.064c-.238-.355-.447-.735-.725-1.055a3.219 3.219 0 00-.802-.633c-.12-.07-.404-.052-.476.037-.095.116-.114.362-.061.517.257.745.837 1.2 1.507 1.563a.53.53 0 01.259.289c-.172.01-.344.025-.516.03-.38.013-.497.206-.423.563.046.222.062.45.092.675l-.148.08-.774-.843c-.245.162-.5.33-.754.5l-.124-.064c.07-.22.137-.44.21-.658.205-.618.557-1.219.281-1.9-.077-.191-.22-.471-.363-.49-.165-.022-.411.163-.538.323-.337.428-.53.915-.504 1.485.014.29-.062.585-.096.878l-.155.047-.379-.866-.942.403-.082-.094.458-.893-.989-.347c0-.033.002-.066.004-.1.497-.15 1.005-.276 1.489-.463.288-.111.566-.286.8-.487.484-.416.49-1.116-.032-1.584-.407-.365-.9-.633-1.355-.945-.09-.061-.172-.133-.386-.298l1.065-.185v-.97l.129-.046.684.74.735-.647.165.069c-.087.56-.19 1.118-.253 1.681-.027.237-.024.505.063.72.167.411.475.408.743.035.281-.392.259-.824.197-1.27-.04-.29-.05-.585-.073-.879l.127-.066.666.698c.277-.189.544-.372.813-.554l.103.044-.323 1.016.868.246.013.156c-.225.06-.453.106-.674.18-.368.124-.754.224-1.087.415-.144.083-.226.362-.23.553-.001.077.3.24.443.222a15.314 15.314 0 001.563-.31c.205-.048.396-.155.594-.236l.103.086c-.172.296-.344.59-.534.922.317.234.618.453.92.672zM29.55 37.967c.007-.542.377-1.234.896-1.839.126-.147.471-.222.675-.171 1.359.345 2.599.123 3.717-.702.314-.231.51-.059.706.114.442.385.472 1.246.098 1.87-.744 1.244-1.937 1.824-3.278 2.122-.6.133-1.245.15-1.858.095-.623-.058-.957-.56-.955-1.49zm2.498.361c1.136.23 2.42-.84 2.143-1.74l-1.975.504-.168 1.236zM9.65.417c.64-.431 1.577-.39 2.042.132.528.595 1.005.592 1.502.018.37-.429 1.4-.496 2.001-.144-.178.094-.322.162-.458.242-.15.09-.292.19-.386.25.302.764 1.192.785 1.465 1.583-.366-.065-.606-.132-.85-.146-.267-.015-.537.018-.807.028.024.257.02.52.08.769.077.324.205.636.311.952l-.172.123c-.165-.13-.348-.244-.49-.396-.192-.206-.323-.475-.533-.656-.27-.233-.538-.188-.656.186-.095.298-.133.614-.244.905-.064.166-.223.295-.339.44l-.114-.075c-.049-.369-.09-.74-.148-1.107-.08-.503-.374-.635-.806-.356-.237.154-.449.348-.69.491-.109.063-.266.042-.4.06l-.052-.13c.222-.299.452-.592.66-.901.092-.136.14-.302.207-.454-.173-.052-.346-.147-.519-.146-.362.002-.724.063-1.087.08-.091.003-.186-.071-.28-.11.068-.09.117-.222.208-.265.27-.128.57-.192.83-.335.179-.099.309-.286.46-.434-.139-.133-.27-.273-.417-.397C9.875.544 9.764.49 9.65.417zm26.507 10.862c-1.555.043-2.886-1.036-3.26-2.345-.174-.612-.12-.672.482-.785.612-.115 1.22-.284 1.81-.481.328-.11.555-.083.717.217.197.366.461.378.825.248.995-.359 1.458-.051 1.788 1.183.296 1.105.055 1.412-1.235 1.826-.354.114-.75.095-1.127.137zM34.353 9.12c.403.686.984.941 1.702.953.474.007.96.029 1.29-.424l-2.992-.529zM22.34 32.844c0-.252.03-.46-.006-.655-.057-.304-.26-.677.14-.822.19-.07.49.156.72.305.602-.041.793.145.715.762-.014.103.066.215.064.323-.005.213.032.483-.082.617-.085.1-.4.085-.576.02-.58-.21-.615-.22-.548.392.1.908-.417 1.449-1.108 1.828-.96.527-2 .718-3.064.31-.462-.178-.836-.476-1.003-.991-.118-.366.059-.384.325-.352.092.012.18.07.27.07.912.006 1.369.14 1.88-1.037.037-.086.098-.164.13-.252.355-.95 1.177-1.237 2.144-.518zm19.083-2.806c-.02-1.277-.905-1.57-1.737-1.934-.55-.24-.848-.685-.807-1.114.045-.485.415-.933.914-1.006.28-.042.578.034.84.054.026-.34.053-.627.067-.914.025-.493.39-.688.778-.779.43-.1.826.059 1.082.436.683 1.007.612 2.093.262 3.177-.244.756-.696 1.396-1.4 2.08zM11.11 26.875c.54-.227.964-.187 1.258.172.275.335.392.735.148 1.132-.115.189-.305.39-.506.457-.287.097-.32.263-.311.501.018.51-.233.826-.713.986-.489.162-.853.022-1.16-.385-.077-.102-.287-.178-.418-.157-.567.092-1.112-.169-1.275-.652-.154-.453.096-.989.608-1.24.22-.109.36-.217.332-.493-.048-.47.208-.769.62-.96.448-.207.797-.04 1.102.287.108.115.21.234.315.352zm-.536 1.866c.098-.12.41-.355.37-.486-.073-.242-.351-.422-.545-.63-.175.174-.45.323-.502.528-.087.343.153.55.677.588zM6.673 14.508c-.445-.057-.98-.106-1.504-.208-.122-.024-.319-.264-.293-.347.271-.866.28-1.841 1.09-2.49.86-.686 1.815-.832 2.855-.607.078.016.13.154.19.238.15.21.326.41.44.64.084.169.164.402.114.567-.354 1.179-1.371 2.226-2.892 2.207zm1.303-3.358c-.203.267-.364.386-.384.525-.048.326.426 1.04.756 1.1.153.029.344-.145.518-.227l-.89-1.398zm-1.443.827c-.427.212-.443.53-.402.837.065.484.416.78.83.946.171.069.43-.078.65-.126-.618-.43-1.034-.869-1.078-1.657z"/><path d="M14.18 28.17c.953.08 1.694.64 2.032 1.61.134.384.264.772.355 1.167.095.415.42.477.722.44 1.175-.14 1.824.696 2.087 1.553.156.507-.195.877-.813.885-1.231.015-2.26-.517-2.466-2.077-.154-1.157-.845-1.763-1.923-2.04a3.482 3.482 0 01-.752-.274c-.158-.084-.372-.24-.383-.38-.016-.177.096-.449.243-.542.264-.167.596-.234.898-.342zm4.397 4.71c.029-.479-.761-1.057-1.098-.906-.221.1-.398.271-.126.485.265.208.558.39.863.534.094.044.266-.08.36-.113zm21.65-21.477c.63-.195 1.267-.322 1.833-.595.406-.196.712-.592 1.07-.892.1-.085.238-.224.322-.2.105.028.174.196.253.307.016.023.013.062.011.093-.061 1.292-.08 2.588-.203 3.875-.067.703-.352.809-.935.396-1.018-.722-1.864-1.609-2.34-2.79-.026-.07-.009-.156-.01-.194zm-12.062-1.45c.437.447.907.703 1.533.523.058-.017.248.193.26.31.017.152-.083.317-.134.48 1.346.208 2.056-.36 2.273-1.793.575.736.38 2.507-.888 3.021-.622.251-1.274.306-1.909.108-.4-.125-.62-.056-.752.326-.018.054-.061.1-.092.148-.83-.476-.99-2.084-.291-3.123zm2.264 15.909c1.417.198 2.466 1.288 2.493 2.592.011.556-.192 1.17-.812 1.378-.452.153-.956.208-1.399-.137-.563-.439-.542-1.027-.445-1.635.019-.121.083-.236.133-.351.253-.585.472-1.171.03-1.847zm.953 1.132c-.058.318-.142.562-.13.8.006.134.144.33.267.373.09.032.323-.108.37-.222.186-.448-.125-.68-.507-.951z"/><path d="M31.025 10.295l-.999-.91.287-.491c-.565-.497-1.387-.315-1.88.488-.434-.551.152-1.83 1.146-1.892.569-.036 1.103.04 1.593.359.101.066.27.1.382.066.333-.103.428.021.44.335.03.822-.308 1.558-.969 2.045zM11.7 15.248c-.014.694-.492 1.243-1.104 1.267-.64.025-1.248-.55-1.326-1.302-.07-.67.17-1.27.548-1.811.057-.083.235-.17.312-.14.847.324 1.56 1.04 1.57 1.986zm21.033 18.205c.384.06.648.1.911.143.38.062.715.184.747.639.05.699-.053.854-.645 1.07-.7.256-1.404.304-2.117.058-.273-.094-.551-.168-.543-.55.008-.425-.082-.891.47-1.06.417-.126.846-.217 1.177-.3zM42.539 7.31c.843.023.957.717.727 1.472-.313 1.028-1.19 1.525-2.167 1.78-.435.114-.93.046-1.391 0-.34-.034-.443-.343-.33-.607.08-.189.328-.429.508-.434.77-.027 1.446-.277 2.07-.697.562-.377.771-.91.583-1.514zM8.524 9.208c0 .16.042.336-.013.473-.052.131-.196.302-.317.318-.873.12-1.813-.535-2.013-1.368-.134-.56.11-1.109.573-1.29.481-.186 1.249.036 1.464.504.193.418.27.89.4 1.337l-.094.026zm24.899 18.229c.659.055 1.214.238 1.627.735.424.51.35 1.419-.145 1.73-.414.26-.938.272-1.252.029-.42-.324-.422-.764-.303-1.209.23-.867.242-.865.073-1.285zM20.415 7.733c-.068.298-.077.477-.148.628-.219.47-.436.527-.754.13a51.215 51.215 0 01-1.78-2.386c-.1-.143-.087-.367-.127-.554.186.041.407.032.55.133.64.462 1.273.936 1.877 1.444.19.162.282.442.382.605zm13.016 10.828c-.001.637-.386 1.017-1.029 1.017-.642 0-1.026-.381-1.026-1.02 0-.638.44-1.118 1.029-1.116.588.002 1.026.479 1.026 1.12zM17.435 45.837c.005-.642.452-1.135 1.028-1.136.515-.001.954.418.92.93-.04.595-.502 1.3-1.118 1.223-.595-.076-.836-.305-.83-1.017z"/><path d="M39.005 7.684c.668.218 1.26.018 1.845-.218a3 3 0 01.311-.109c.298-.083.638-.172.79.182.139.319.024.673-.294.817a8.95 8.95 0 01-1.667.589c-.387.089-.703-.098-.753-.577-.022-.22-.142-.428-.232-.684zm-6.542 5.451c.608.002.948.337.974.908.027.597-.412 1.002-.987 1.032-.521.028-.974-.463-.976-1.004-.003-.599.354-.938.99-.936zm-.764 2.498c.005.496-.472.973-.972.974-.424 0-.955-.513-.976-.945-.023-.471.478-.99.962-.996.499-.005.982.468.986.967zM5.339 8.269c.034 1.023.453 1.702 1.415 2.05-.535.4-1.046.478-1.565.244-.434-.196-.635-.583-.64-1.064-.006-.544.28-.899.79-1.23zm22.576 8.301c.004-.51.367-.868.862-.852.446.014.896.454.898.876.002.497-.402.881-.925.88-.573 0-.84-.29-.835-.905zm-23.46-.52c.973 1.09 1.24.976 2.944.657-.554.513-1.115.894-1.793 1.043-.606.133-1.077-.358-1.149-1.145-.014-.157-.002-.318-.002-.555zm4.763.398c-.562.413-1.305.199-1.552-.318-.288-.6.117-1.262 1.029-1.636-.155.75-.101 1.438.523 1.954zm19.351 12.028c.665-.092 1.3.398 1.304 1.067.003.431-.3.744-.726.748-.38.005-.669-.32-.653-.755.013-.349.049-.696.075-1.06zM4.647 4.944c.006-.75.865-1.344 1.576-1.064.08.032.15.368.09.426-.36.347-.736.688-1.151.964-.39.26-.52.155-.515-.326zm29.56 13.008a.712.712 0 01-.712-.719c-.007-.337.447-.757.802-.741.394.016.673.336.673.772-.001.467-.252.694-.763.688zM20.45 2.074c.003.76-.197.899-.83.603a4.159 4.159 0 01-.791-.505c-.224-.175-.203-.368.1-.417.377-.06.759-.08 1.14-.107.371-.025.424.204.38.426zM4.981 14.598c.564.72 1.28.778 2.039.73-.455.615-1.008.86-1.503.68-.405-.148-.615-.64-.536-1.41zm29.796.751c0 .361-.333.693-.69.684-.282-.006-.595-.363-.596-.678 0-.338.323-.684.64-.686.318-.003.646.343.646.68zm-2.23 1.65c-.433-.003-.724-.247-.674-.615.049-.361.249-.592.666-.575.4.016.609.217.603.616-.005.394-.22.566-.595.574zm-21.853-5.873c.382.004.627.249.614.609-.015.374-.28.578-.716.576-.426-.002-.536-.293-.552-.621-.017-.365.246-.568.654-.564zm18.536 3.953c-.586.01-.836-.236-.834-.637.002-.307.338-.627.651-.62.304.008.692.362.608.65-.076.258-.321.467-.424.607zM10.45 10.29c0 .462-.2.692-.568.677-.395-.014-.604-.225-.62-.618-.012-.33.294-.692.599-.641.32.055.679.15.59.582zm20.674 7.32c.018.466-.26.598-.598.622-.369.026-.59-.244-.595-.624-.007-.419.244-.599.602-.632.365-.035.596.26.59.634zm3.199.982c.375-.065.558.128.58.487.024.389-.244.68-.609.684-.262.004-.635-.357-.6-.629.044-.339.205-.6.63-.542zM33.2 12.791c-.37-.02-.584-.199-.572-.586.012-.344.196-.565.543-.592.339-.027.678.298.637.609-.044.332-.187.604-.608.57zm-2.785 1.432c-.399.022-.532-.249-.565-.561-.03-.281.358-.653.617-.609.342.058.575.235.563.629-.014.408-.238.556-.615.54z"/></g></svg>