<svg fill="none" height="23" viewBox="0 0 125 23" width="125" xmlns="http://www.w3.org/2000/svg"><clipPath id="a"><path d="M0 0h125v23H0z"/></clipPath><g clip-path="url(#a)" fill="#0d084d"><path d="M31.63 0c.968.198 1.965.304 2.9.608 4.303 1.4 7.148 4.253 8.032 8.812.995 5.139-1.377 9.92-6.073 12.108-4.771 2.221-9.522 1.994-13.836-1.133-6.814-4.94-5.65-15.533 2.006-19.124A12.84 12.84 0 0128.964.085c.11-.01.215-.056.322-.086L31.63 0zM21.102 11.52c.107.715.155 1.444.33 2.14 1.378 5.525 7.467 8.495 12.687 6.21 4.758-2.085 6.91-7.156 5.02-11.833-1.583-3.92-5.39-6.136-9.748-5.676-4.633.49-8.207 4.467-8.289 9.16zM125 21.369h-16.28V3.12h2.476v16.268h13.805L125 21.37zm-65.778-7.587l5.507 7.585c-1.064 0-2.079.013-3.092-.016-.13-.004-.28-.199-.377-.337-1.658-2.325-3.305-4.657-4.97-6.976-.114-.16-.349-.327-.528-.328-2.279-.022-4.558-.014-6.837-.012-.063 0-.126.017-.254.036v7.607h-2.565V3.085h.516c3.499 0 6.999-.032 10.498.02 1.028.015 2.092.137 3.071.437 2.139.655 3.452 2.525 3.565 4.817.098 1.97-1.126 3.904-3.07 4.825-.438.206-.898.368-1.464.598zM48.68 11.517c.147.013.257.031.368.031 2.733.001 5.467.015 8.201-.012.561-.005 1.135-.11 1.68-.255 1.216-.325 2.007-1.368 2.096-2.675.092-1.331-.51-2.459-1.7-2.936a5.563 5.563 0 00-1.939-.4c-2.766-.043-5.533-.019-8.3-.019-.125 0-.252.016-.408.027.002 2.076.002 4.129.002 6.24zm58.613 9.852c-.999 0-1.894.016-2.787-.016-.153-.005-.362-.181-.441-.334a180.518 180.518 0 01-2.005-4.007c-.143-.294-.307-.395-.632-.394-3.384.013-6.768.014-10.152-.002-.337-.002-.483.129-.619.408a254.554 254.554 0 01-1.992 4.014c-.068.135-.233.31-.357.314-.938.026-1.877.014-2.873.014.095-.212.163-.375.242-.53 2.886-5.752 5.778-11.5 8.651-17.258.189-.378.393-.526.814-.506.813.038 1.628.034 2.44.001.397-.016.596.12.776.48 2.567 5.14 5.149 10.273 7.729 15.406l1.206 2.41zM96.341 5.618l-4.31 8.704h8.672l-4.362-8.704zm-15.567 5.349v2h-9.958v6.394h13.28v1.978H68.023V3.124H84.1V5.07H70.816v5.896l9.958.001zM0 21.334V3.126h2.514v16.238h13.743v1.97H0zM16.92 3.085c-.643 1.225-1.234 2.358-1.828 3.49-.465.886-.92 1.779-1.412 2.65a.75.75 0 01-.508.323c-.466.046-.94.015-1.48.015.051-.177.08-.312.13-.44.736-1.88 1.482-3.757 2.207-5.644.112-.289.242-.412.558-.402.745.024 1.491.008 2.333.008zM80.766.24l-6.392 2.317-.056-.07c.662-.753 1.32-1.51 1.992-2.254.064-.07.206-.095.311-.096C78 .131 79.377.133 80.755.133l.012.106z"/></g></svg>