<svg fill="none" height="30" viewBox="0 0 166 30" width="166" xmlns="http://www.w3.org/2000/svg"><g fill="#0d084d"><path d="M21.67 18.552c.048.102.075.155.097.211.277.706.821.943 1.494.586.68-.36 1.268-.849 1.705-1.507.362-.544.347-1.13.158-1.708-.102-.313-.01-.495.154-.745.299-.456.567-.94.778-1.446.187-.448.004-.883-.21-1.3a3.017 3.017 0 01-.296-.796c-.288-1.488-1.117-2.616-2.316-3.45-.37-.256-.592-.489-.739-.919-.328-.963-1-1.645-1.996-1.878-.43-.1-.794-.216-1.157-.49-.504-.378-1.127-.275-1.702-.144-.516.117-1.013.316-1.524.455-.175.048-.37.029-.556.033-.344.01-.617.13-.833.423-.12.163-.311.287-.494.383-.469.246-.877.534-1.025 1.089-.023.083-.119.149-.185.219-.31.324-.711.596-.916.977-.35.654-.777 1.247-1.167 1.87-.282.446-.457.977-.604 1.49-.067.235.053.524.081.787.012.117.04.25.003.353-.091.248-.219.482-.331.72-.338.715-.274 1.051.355 1.533.275.21.325.34.051.604-.63.608-.436 1.73.376 2.118.384.184.675.41.923.77.47.677 1.423.91 2.263.607.315-.114.587-.205.898.057.28.237.55.01.77-.17.38-.315.797-.411 1.259-.273.095.03.225.136.237.22.278 1.987.333 3.975-.072 5.95-.09.44-.261.872-.456 1.278-.302.625-.739.815-1.387.648-5.54-1.425-8.983-4.992-10.128-10.618-1.317-6.456 2.367-13.02 8.75-15.257A12.717 12.717 0 0118 .51c6.345-.073 11.433 4.172 13.033 9.883 1.899 6.78-1.707 13.822-8.38 16.307-.617.23-1.268.366-1.908.526-.445.11-.837-.06-1-.47-.266-.672-.53-1.367-.642-2.076-.271-1.716-.225-3.447-.02-5.173.028-.228.085-.37.336-.331.819.126 1.552-.096 2.25-.625zm33.714-8.217c-.557 1.974-1.08 3.852-1.62 5.725-.696 2.42-1.41 4.837-2.103 7.259-.1.354-.318.497-.648.5-.788.006-1.575.002-2.362.003-.338 0-.473-.207-.554-.506-.5-1.85-1.02-3.69-1.509-5.542-.632-2.386-1.241-4.776-1.863-7.165-.014-.055-.053-.104-.12-.224-.026.136-.048.2-.05.263-.083 1.691-.148 3.382-.248 5.071-.135 2.267-.297 4.534-.449 6.8-.018.277-.055.554-.067.83-.014.317-.188.466-.475.469-.962.009-1.924.006-2.888.001-.303-.001-.457-.146-.426-.476.125-1.304.242-2.61.363-3.917.108-1.167.216-2.335.328-3.503.117-1.23.237-2.46.352-3.689.11-1.155.213-2.311.321-3.465.123-1.306.253-2.61.373-3.917.031-.342.268-.354.513-.354 1.1-.003 2.2-.003 3.3-.003.224 0 .45.013.675.004.375-.013.553.174.648.535.564 2.184 1.157 4.358 1.714 6.543.452 1.769.865 3.548 1.298 5.32.023.092.07.177.13.328.223-.958.405-1.857.642-2.74.85-3.163 1.721-6.32 2.577-9.48.098-.363.29-.518.665-.513 1.3.013 2.6.009 3.9.003.361-.002.528.12.56.521.182 2.313.39 4.626.594 6.937.196 2.21.397 4.422.6 6.63.144 1.57.302 3.14.438 4.709.042.478-.027.53-.492.53-.9.002-1.8-.006-2.7.005-.326.003-.51-.084-.53-.46-.047-.881-.13-1.76-.195-2.642-.126-1.724-.257-3.449-.368-5.173-.1-1.524-.173-3.05-.26-4.575-.015-.186-.039-.368-.064-.642zm87.401 7.732c-.146-.055-.291-.111-.439-.161-1.637-.555-2.521-1.825-2.571-3.558-.07-2.48 1.519-4.142 3.832-4.732 1.738-.444 3.463-.283 5.172.187 1.417.39 2.741.217 3.957-.654.341-.243.497-.2.74.16.296.438.587.88.878 1.321.258.39.228.59-.153.851-.811.559-1.707.742-2.672.612-.12-.017-.243-.02-.42-.034.052.12.07.203.116.262 1.179 1.557.869 4.123-1.182 5.39-.873.538-1.823.862-2.864.887-.741.018-1.497.009-2.117.536-.086.073-.215.116-.265.207-.103.186-.258.417-.217.587.031.132.321.275.504.286.698.036 1.402-.014 2.098.036.856.061 1.728.1 2.554.306 1.567.39 2.626 1.396 2.947 3.035.332 1.695-.142 3.15-1.481 4.27-.886.739-1.945 1.055-3.053 1.242-1.999.336-3.986.28-5.914-.357-1.367-.452-2.452-1.311-2.754-2.827-.108-.543.033-1.142.086-1.712.022-.246.19-.342.45-.338a67.74 67.74 0 002.55 0c.306-.006.431.085.407.412-.023.288-.032.589.031.867.191.84.851 1.151 1.591 1.293a6.196 6.196 0 003.001-.143c.953-.29 1.498-1.063 1.43-1.963-.051-.672-.432-1.09-1.036-1.238a11.398 11.398 0 00-1.951-.295c-1.02-.07-2.047-.053-3.068-.12-.492-.032-.986-.145-1.465-.272-.749-.2-1.148-.753-1.247-1.498-.1-.76.012-1.498.712-1.948.447-.287.959-.468 1.446-.69.118-.053.248-.078.373-.116-.008-.033-.006-.062-.006-.091zm.696-3.921c-.003 1.147.518 1.818 1.6 2.042.183.038.372.057.558.057.68-.003 1.345-.059 1.901-.536.839-.724.869-2.912-.623-3.517-1.744-.706-3.431.23-3.436 1.954zm-59.125 1.043h-5.691v7.98c0 .568-.084.652-.655.653h-2.587c-.527 0-.6-.073-.6-.616V6.055c0-.367.01-.735-.002-1.101-.01-.298.106-.452.411-.452 1 .002 2 0 3-.004.385-.002.437.24.436.555-.005 2.15-.003 4.3-.003 6.45 0 .532 0 .534.528.534 1.575 0 3.15-.01 4.725.007.336.003.45-.085.447-.442-.016-2.163-.007-4.326-.007-6.488 0-.562.046-.615.591-.616.95-.005 1.9.007 2.85-.006.355-.005.48.127.478.49-.008 6.11-.006 12.22-.006 18.33 0 .422-.087.51-.505.512a570.5 570.5 0 01-2.775 0c-.513 0-.632-.12-.632-.653l-.001-7.475c-.002-.162-.002-.323-.002-.507zm50.884 7.718a.987.987 0 00-.13.106c-.796.803-1.762 1.19-2.878 1.29-.908.082-1.798.026-2.667-.218-1.756-.493-2.808-1.843-2.903-3.705-.072-1.407.16-2.733 1.225-3.758.788-.757 1.78-1.093 2.817-1.318 1.095-.237 2.204-.264 3.315-.228.334.01.459-.099.424-.427-.043-.426-.039-.86-.121-1.278-.149-.755-.544-1.037-1.312-1.085-1.307-.082-2.442.42-3.553 1.019-.154.083-.298.184-.453.266-.336.18-.561.129-.763-.198a65.187 65.187 0 01-.969-1.622c-.207-.36-.153-.583.219-.783 1.427-.768 2.904-1.4 4.53-1.594 1.151-.138 2.287-.106 3.407.234 1.574.48 2.534 1.627 2.57 3.288.042 1.882-.024 3.766-.032 5.65-.003.619-.007 1.24.053 1.855.057.582.355 1.069.771 1.48.453.448.458.456.042.953-.362.435-.734.862-1.115 1.28-.287.316-.594.373-.929.113-.514-.4-.997-.847-1.548-1.32zm-.93-4.215h.069c0-.265-.011-.53.003-.795.013-.256-.077-.387-.342-.358-.643.07-1.294.096-1.928.22-.977.19-1.352.627-1.514 1.613-.17 1.029.347 1.996 1.201 2.255.758.23 1.975-.19 2.424-.84a.54.54 0 00.084-.278c.006-.607.003-1.212.003-1.817zm-67.425 1.844c.159-.746.27-1.508.487-2.236.698-2.342 1.434-4.671 2.156-7.005.133-.434.286-.861.407-1.298.08-.294.241-.4.54-.395.974.014 1.95.003 2.924.006.434.002.49.08.34.497-.682 1.91-1.367 3.82-2.057 5.727-1.148 3.175-2.282 6.356-3.467 9.515-.304.808-.724 1.585-1.19 2.31-.834 1.297-2.156 1.864-3.576 2.235a3.962 3.962 0 01-.329.075c-.502.086-.624.025-.866-.432-.235-.446-.475-.888-.704-1.338-.183-.364-.115-.528.262-.663.258-.093.52-.172.779-.265 1.31-.471 2.072-1.484 2.608-2.716.093-.214.165-.439.275-.73-.257 0-.452-.016-.644.004-.246.025-.35-.09-.426-.314-1.477-4.394-2.96-8.785-4.442-13.178-.147-.436-.08-.528.377-.578.892-.099 1.782-.216 2.675-.3.501-.046.567.019.71.516.987 3.424 1.973 6.849 2.963 10.273.03.103.073.202.11.302.032-.003.06-.007.088-.012zm30.739-2.708c-1.213 0-2.424.01-3.636-.006-.313-.004-.4.097-.399.41.006 1.672.854 2.894 2.262 3.192.892.189 1.771.084 2.607-.254.506-.203.988-.482 1.456-.766.296-.18.497-.173.688.125.276.436.564.863.846 1.295.246.377.237.48-.128.742-.87.631-1.816 1.106-2.859 1.367-1.625.406-3.243.406-4.81-.23-2.118-.857-3.332-2.5-3.823-4.715-.4-1.795-.37-3.606.19-5.347.763-2.368 2.331-3.9 4.851-4.271 1.168-.172 2.318-.083 3.426.331 1.94.725 2.917 2.272 3.303 4.221.204 1.03.242 2.098.312 3.153.039.568-.175.75-.729.752-1.184.003-2.37.001-3.557.001zm-1.75-2.624c.61 0 1.223-.01 1.834.004.29.006.408-.102.376-.4-.042-.4-.028-.809-.102-1.202-.178-.946-.804-1.506-1.796-1.66-.84-.13-1.672.29-2.108 1.064-.316.564-.391 1.184-.433 1.818-.02.292.087.383.357.38.624-.012 1.247-.006 1.871-.004z"/><path d="M161.702 17.828c-1.213 0-2.424.01-3.635-.006-.307-.003-.427.087-.407.408.105 1.666.728 2.843 2.274 3.191.875.198 1.747.091 2.572-.236.52-.205 1.007-.495 1.492-.778.353-.205.464-.207.701.144.275.408.541.82.809 1.23.273.419.254.531-.163.83-1.087.78-2.288 1.293-3.604 1.494-1.364.208-2.715.128-4.008-.403-2.159-.886-3.363-2.571-3.844-4.83-.382-1.801-.336-3.615.251-5.344.782-2.305 2.346-3.803 4.82-4.16a6.965 6.965 0 013.249.272c1.996.67 2.996 2.202 3.469 4.171.263 1.098.351 2.215.312 3.344-.016.503-.183.67-.69.67-1.2.005-2.399.003-3.598.003zm-1.758-2.626c.625 0 1.251-.007 1.875.003.294.006.413-.117.384-.407-.027-.277-.033-.555-.07-.829-.11-.801-.409-1.5-1.192-1.841-.761-.333-1.525-.294-2.201.216-.807.61-.953 1.52-1.013 2.463-.019.301.09.406.38.4.612-.012 1.225-.003 1.837-.005zM21.035.101c.126-.024.198-.048.269-.048 3.051-.034 5.968.529 8.596 2.166 3.535 2.204 5.693 5.39 6.392 9.539 1.027 6.093-2.17 12.147-7.725 14.725-1.72.798-3.52 1.27-5.407 1.37-.732.039-1.467.006-2.026.006 4.006-.618 7.197-2.818 9.456-6.41 1.543-2.457 2.26-5.17 2.118-8.072C32.387 6.714 27.545 1.102 21.035.101zm-5.692.001C8.149 1.222 3.442 7.908 3.75 14.582c.312 6.762 5.33 12.547 12.09 13.344-.686 0-1.323.012-1.96-.002-3.112-.071-5.938-1.01-8.42-2.922C2.494 22.715.623 19.692.14 15.96-.58 10.394 1.449 5.933 5.933 2.652 7.882 1.229 10.11.46 12.496.199c.94-.103 1.888-.135 2.83-.199l.017.102zM119.01 16.324c0-1.289-.007-2.58.006-3.87.003-.29-.072-.42-.377-.395-.247.022-.499-.004-.749.006-.219.011-.316-.06-.312-.3.012-.62.012-1.24 0-1.86-.004-.239.092-.312.312-.301.263.012.526-.011.787.006.269.016.332-.1.341-.356.028-.921.087-1.841.12-2.763.007-.22.108-.312.3-.359.908-.222 1.813-.454 2.723-.67.501-.12.69.11.657.635-.066 1.084-.081 2.172-.122 3.256-.009.245.145.252.32.252.8-.001 1.6-.001 2.4.002.5.001.572.112.393.591-.193.52-.394 1.037-.573 1.562-.078.228-.198.313-.437.307-.587-.015-1.175.004-1.762-.01-.261-.005-.345.086-.345.35.009 2.517.006 5.033.015 7.55.002.25.045.505.108.747.197.757.7.935 1.627.93.269-.001.545-.071.806-.149.299-.088.456.012.521.304.099.455.192.912.294 1.367.057.254-.033.418-.273.5-1.498.51-3.009.701-4.546.18-1.074-.364-2.178-1.206-2.175-2.924.003-1.53 0-3.06 0-4.59-.02.002-.039.002-.059.002zm-16.078-6.179c.253-.073.501-.149.75-.216.734-.195 1.474-.376 2.203-.585.236-.067.364-.008.431.21.173.544.338 1.091.521 1.686.104-.114.206-.23.314-.342.656-.685 1.324-1.372 2.299-1.54.461-.081.947-.072 1.414-.025.461.047.611.336.476.79-.21.699-.437 1.394-.656 2.09-.09.286-.257.388-.566.336-1.052-.175-1.974.105-2.75.862a.85.85 0 00-.279.663c.009 3.046.006 6.093.006 9.138 0 .537-.072.609-.603.61-.824.002-1.65.002-2.474 0-.508 0-.615-.106-.615-.617 0-2.996-.005-5.991.001-8.988.003-1.305-.084-2.596-.447-3.855-.016-.057-.015-.121-.025-.217zm13.028 6.421v6.716c0 .534-.006.54-.514.54-.863.002-1.725.003-2.588-.001-.471-.002-.54-.073-.54-.552-.002-4.313.004-8.626-.009-12.938-.002-.396.147-.527.505-.575.889-.119 1.775-.26 2.66-.403.464-.075.486-.067.486.422.002 2.265 0 4.527 0 6.791zm.45-10.958c0 1.298-.987 2.282-2.286 2.276-1.256-.006-2.25-1.02-2.245-2.291.004-1.27 1.028-2.26 2.328-2.248 1.273.012 2.203.967 2.203 2.263z"/></g></svg>